<svg xmlns="http://www.w3.org/2000/svg" viewBox="0 0 700 419" fill="currentColor">
	<style>
		path { fill: #000; }
		@media (prefers-color-scheme: dark) {
			path { fill: #fff; }
		}
	</style>
	<g>
		<path
			aria-label="G"
			d="M285 0H120C97.9086 0 80 17.9086 80 40V376.797C80 398.889 97.9086 416.797 120 416.797H285C307.091 416.797 325 398.889 325 376.797V250H235V295H280V371.797H125V45H285V0Z"		/>
		<path
			aria-label="C"
			d="M350 82.7372C350 37.0217 387.027 0 432.75 0H575V45H432.75C411.988 45 395.006 61.9759 395.006 82.7372V334.06C395.006 354.821 411.988 371.797 432.75 371.797H575V416.797H432.75C387.027 416.797 350 379.775 350 334.06V82.7372Z"
		/>
	</g>
</svg>
